# xmcd
#
# Track frame offsets: 
#        150
#        13884
#        32015
#        53461
#        82551
#        103212
#        126048
#        146087
#
# Disc length: 2295 seconds
#
# Revision: 0
# Processed by: cddbd v1.5.2PL0 Copyright (c) Steve Scherf et al.
# Submitted via: ExactAudioCopyFreeDBPlugin 1.0
#
DISCID=5d08f508
DTITLE=Gail Jo and The Criminals Of Love - Appointment With The Blues
DYEAR=2004
DGENRE=Blues
TTITLE0=Appointment With The Blues
TTITLE1=Long Distance Communication
TTITLE2=Other Valentines
TTITLE3=Sing Me Blue
TTITLE4=I Don't Have A Heart
TTITLE5=Walk Through The Desert
TTITLE6=Criminal Of Love
TTITLE7=California
EXTD=
EXTT0=
EXTT1=
EXTT2=
EXTT3=
EXTT4=
EXTT5=
EXTT6=
EXTT7=
PLAYORDER=
